# xmcd
#
# Track frame offsets: 
#        150
#        4515
#        25938
#        38507
#        60980
#        79849
#        106322
#        120901
#        134395
#        153265
#        162581
#        188528
#        202465
#        219229
#        236871
#        257762
#        268357
#        293434
#        310749
#
# Disc length: 4470 seconds
#
# Revision: 6
# Processed by: cddbd v1.5.2PL0 Copyright (c) Steve Scherf et al.
# Submitted via: ExactAudioCopy v0.99pb5
#
DISCID=fe117413
DTITLE=The Game - The Documentary 2 and 2.5 Disc1 The Documentary 2
DYEAR=2015
DGENRE=Rap/Hip-Hop
TTITLE0=Intro
TTITLE1=One Me featuring Kendrick Lamar 
TTITLE2=Step Up featuring Dej Loaf and Sha Sha
TTITLE3=Don't Trip featuring Ice Cube, Dr. Dre and will.i.am
TTITLE4=Standing on Ferraris featuring Diddy
TTITLE5=Dollar and a Dream featuring AB Soul
TTITLE6=Made in America featuring Marcus Black
TTITLE7=Hashtag featuring Jelly Roll
TTITLE8=Circles featuring Q-Tip, Eric Bellinger and Sha Sha
TTITLE9=Uncle (Skit)
TTITLE10=Dedicated featuring Future and Sonyae
TTITLE11=Bitch You Ain't Shit
TTITLE12=Summertime featuring Jelly Roll
TTITLE13=Mula featuring Kanye West
TTITLE14=The Documentary 2
TTITLE15=New York, New York
TTITLE16=100 featuring Drake
TTITLE17=Just Another Day
TTITLE18=LA featuring Snoop Dogg, will.i.am and Fergie 
EXTD=
EXTT0=
EXTT1=
EXTT2=
EXTT3=
EXTT4=
EXTT5=
EXTT6=
EXTT7=
EXTT8=
EXTT9=
EXTT10=
EXTT11=
EXTT12=
EXTT13=
EXTT14=
EXTT15=
EXTT16=
EXTT17=
EXTT18=
PLAYORDER=
